<svg version="1.2" xmlns="http://www.w3.org/2000/svg" viewBox="0 0 400 400" width="200" height="200">
    <style>
        .circle {
            fill: #45cb85;
        }

        .letter {
            fill: #fff;
        }
    </style>
    <path class="circle"
        d="m200 400c-110.6 0-200-89.4-200-200 0-110.6 89.4-200 200-200 110.6 0 200 89.4 200 200 0 110.6-89.4 200-200 200z" />
    <path fill-rule="evenodd" class="letter"
        d="m320 198.9q6.8 0 9.8 3 3.3 3 3.3 7.8 0 7.8-4.8 13.7-4.4 6-14.3 6.3-23.9 0.6-42.4-3.6-21.2 44.5-51.4 74.1-29.9 29.3-60.1 29.3-31 0-46.3-36.2-15.2-36.1-15.2-97.6 0-52.6 7.5-94.4 2.7-15.6 7.4-21 5.1-5.6 17.1-5.6 19.7 0 19.7 17 0 1.8-0.6 6.6-9 53.7-9 97.4 0 45.7 7.5 69.6 7.8 23.6 23 23.6 15.5 0 33.8-21.5 18.2-21.6 33.4-54.1-18.2-11.4-27.5-29.3-9.2-18.2-9.2-41.8 0-23.6 7.1-39.8 7.5-16.4 20.1-24.4 12.8-8.1 28.3-8.1 19.2 0 30.2 13.7 11.4 13.8 11.4 37.7 0 34.3-15 75 15.9 2.6 36.2 2.6zm-88.2-58.8q0 29.3 18.9 43.3 11.6-33.5 11.6-55.3 0-12.5-3.3-18.2-3.3-6-8.9-6-8.1 0-13.2 9.6-5.1 9.3-5.1 26.6z" />
</svg>