<svg version="1.2" xmlns="http://www.w3.org/2000/svg" viewBox="0 0 400 400" width="192" height="192">
    <style>
        tspan {
            white-space: pre
        }

        .a {
            fill: #45cb85
        }

        .b {
            fill: #fff
        }

        .c {
            fill: #1d282c
        }
    </style>
    <path class="a"
        d="m200 400c-110.6 0-200-89.4-200-200 0-110.6 89.4-200 200-200 110.6 0 200 89.4 200 200 0 110.6-89.4 200-200 200z" />
    <path fill-rule="evenodd" class="b"
        d="m320 198.9q6.8 0 9.8 3 3.3 3 3.3 7.8 0 7.8-4.8 13.7-4.4 6-14.3 6.3-23.9 0.6-42.4-3.6-21.2 44.5-51.4 74.1-29.9 29.3-60.1 29.3-31 0-46.3-36.2-15.2-36.1-15.2-97.6 0-52.6 7.5-94.4 2.7-15.6 7.4-21 5.1-5.6 17.1-5.6 19.7 0 19.7 17 0 1.8-0.6 6.6-9 53.7-9 97.4 0 45.7 7.5 69.6 7.8 23.6 23 23.6 15.5 0 33.8-21.5 18.2-21.6 33.4-54.1-18.2-11.4-27.5-29.3-9.2-18.2-9.2-41.8 0-23.6 7.1-39.8 7.5-16.4 20.1-24.4 12.8-8.1 28.3-8.1 19.2 0 30.2 13.7 11.4 13.8 11.4 37.7 0 34.3-15 75 15.9 2.6 36.2 2.6zm-88.2-58.8q0 29.3 18.9 43.3 11.6-33.5 11.6-55.3 0-12.5-3.3-18.2-3.3-6-8.9-6-8.1 0-13.2 9.6-5.1 9.3-5.1 26.6z" />
    <path class="c"
        d="m236 336c0-6.1 4.9-11 11-11h129c6.1 0 11 4.9 11 11v44.4c0 6.1-4.9 11-11 11h-129c-6.1 0-11-4.9-11-11z" />
    <path class="b"
        d="m271 365.2q0 2.8-1.4 4.9-1.4 2.1-4 3.2-2.6 1.1-6.3 1.1-1.6 0-3.2-0.2-1.6-0.2-3-0.6-1.5-0.4-2.8-1.1v-6.2q2.3 1 4.7 1.8 2.4 0.8 4.8 0.8 1.7 0 2.7-0.4 1-0.5 1.4-1.2 0.5-0.8 0.5-1.8 0-1.2-0.8-2-0.8-0.8-2.2-1.6-1.4-0.7-3.2-1.6-1.1-0.5-2.4-1.2-1.3-0.8-2.4-1.9-1.2-1-2-2.6-0.7-1.5-0.7-3.7 0-2.8 1.3-4.9 1.3-2 3.7-3 2.4-1.1 5.7-1.1 2.5 0 4.7 0.6 2.3 0.5 4.7 1.6l-2.1 5.2q-2.2-0.8-4-1.3-1.7-0.5-3.5-0.5-1.2 0-2.1 0.4-0.9 0.4-1.4 1.1-0.4 0.7-0.4 1.7 0 1.1 0.6 1.9 0.7 0.7 2 1.5 1.4 0.7 3.3 1.6 2.5 1.2 4.2 2.4 1.7 1.3 2.6 3 1 1.6 1 4.1zm17.9-17.3v26.1h-6.7v-26.1h-8.6v-5.6h23.9v5.6zm16.8-5.6l6.5 13.1 6.6-13.1h7.3l-10.5 19.4v12.3h-6.7v-12.1l-10.5-19.6zm43.9 31.7h-19.5v-31.7h6.7v26.2h12.8zm23.8-5.6v5.6h-18.3v-31.7h18.3v5.5h-11.6v7h10.8v5.5h-10.8v8.1z" />
</svg>